<svg id="Capa_1" data-name="Capa 1" xmlns="http://www.w3.org/2000/svg" viewBox="0 0 516.59 196.74"><defs></defs><title>WFS-Logo</title><path class="cls-1" d="M0,0V196.74l35.08-6.83V25.83S35.17,6.88,0,0Z"></path><path class="cls-1" d="M54.75,10.63V186.11l35.08-6.84V36.46S89.92,17.51,54.75,10.63Z"></path><path class="cls-1" d="M109.5,21.32V175.46l35.08-6.84V47.14S144.66,28.19,109.5,21.32Z"></path><path class="cls-2" d="M454.38,69.24h0c9.83-.34,9.3-11.16,9.3-11.16s.53-10.82-9.3-11.15H417.17v8.62h27.39c2.22.08,2.1,2.52,2.1,2.52s.12,2.45-2.1,2.52l0,0H417.17V82.47h13.5V69.24Z"></path><path class="cls-2" d="M463.68,74.77s0-.06,0-.1v-.06h0c-.27-4.89-5-5.34-6.29-5.37h-13.3c1.32,0,5.93.51,6.1,5.37h0v7.86h13.5v-7.7Z"></path><path class="cls-2" d="M435.16,69.24h0Z"></path><path class="cls-2" d="M321.33,69H297.89c-9.72-.33-9.2-11-9.2-11s-.52-10.7,9.2-11h36.79v8.53H307.59c-2.19.07-2.07,2.49-2.07,2.49s-.12,2.42,2.07,2.49l0,0h11.1V69"></path><path class="cls-2" d="M316.89,69h0Z"></path><path class="cls-2" d="M307.25,82.45h23.44c9.72-.33,9.19-11,9.19-11s.53-10.7-9.19-11H299.81v8.53H321c2.2.07,2.08,2.49,2.08,2.49s.12,2.42-2.08,2.49l0,0H309.91v8.53"></path><path class="cls-2" d="M327.94,90.29h0Z"></path><rect class="cls-2" x="164.25" y="46.93" width="13.34" height="35.55"></rect><rect class="cls-2" x="198.88" y="46.93" width="13.52" height="35.55"></rect><rect class="cls-2" x="237.45" y="46.93" width="13.52" height="35.55"></rect><rect class="cls-2" x="344.05" y="46.93" width="13.52" height="35.55"></rect><polygon class="cls-2" points="200.34 59.25 199.53 46.93 195.94 46.93 177.18 68.54 177.18 82.47 179.19 82.47 199.74 59.44 199.71 59.35 200.34 59.25"></polygon><polygon class="cls-2" points="241.04 46.93 230.58 46.93 211.81 68.54 211.81 82.47 213.82 82.47 238.65 53.95 241.04 46.93"></polygon><polygon class="cls-2" points="503.06 46.93 503.06 68.54 484.3 46.93 481.36 46.93 480.71 46.93 467.84 46.93 467.84 82.47 481.36 82.47 481.36 60.4 501.05 82.47 503.06 82.47 516.59 82.47 516.59 46.93 503.06 46.93"></polygon><rect class="cls-2" x="247.51" y="46.93" width="37.06" height="8.63"></rect><rect class="cls-2" x="333.21" y="46.93" width="32.68" height="8.63"></rect><rect class="cls-2" x="247.51" y="60.39" width="37.06" height="8.63"></rect><rect class="cls-2" x="247.51" y="73.85" width="79.94" height="8.63"></rect><rect class="cls-2" x="365.89" y="46.93" width="13.52" height="35.55"></rect><rect class="cls-2" x="375.95" y="46.93" width="46.83" height="8.63"></rect><rect class="cls-2" x="375.95" y="60.39" width="37.06" height="8.63"></rect><rect class="cls-2" x="375.95" y="73.85" width="37.06" height="8.63"></rect><path class="cls-2" d="M336.42,90h-12c-4.29.24-4.68,4.38-4.71,5.52h0v1.06h0v22.91h0V120h0c0,1.14.42,5.28,4.71,5.52h32V117H338c-4.27-.14-4.68-4.19-4.71-5.35V115h0V100.46h0v3.36c0-1.16.44-5.21,4.71-5.35h18.49V90Z"></path><polygon class="cls-2" points="324.57 89.96 336.42 89.96 336.42 89.96 324.57 89.96"></polygon><polygon class="cls-2" points="336.42 125.51 336.42 125.51 324.57 125.51 336.42 125.51"></polygon><polygon class="cls-2" points="302.03 89.96 302.03 111.57 283.26 89.96 280.33 89.96 279.68 89.96 266.81 89.96 266.81 125.51 280.33 125.51 280.33 103.43 300.02 125.51 302.03 125.51 315.55 125.51 315.55 89.96 302.03 89.96"></polygon><polygon class="cls-2" points="211.37 103.42 177.77 103.42 177.77 98.58 211.37 98.58 211.37 89.96 174.31 89.96 174.31 89.96 164.25 89.96 164.25 125.51 177.77 125.51 177.77 112.05 211.37 112.05 211.37 103.42"></polygon><polygon class="cls-2" points="262.65 98.58 262.65 89.96 229.05 89.96 225.59 89.96 215.53 89.96 215.53 125.51 225.59 125.51 229.05 125.51 262.65 125.51 262.65 116.88 229.05 116.88 229.05 112.05 262.65 112.05 262.65 103.42 229.05 103.42 229.05 98.58 262.65 98.58"></polygon><polygon class="cls-2" points="407.72 98.58 407.72 89.96 374.12 89.96 370.66 89.96 360.6 89.96 360.6 125.51 370.66 125.51 374.12 125.51 407.72 125.51 407.72 116.88 374.12 116.88 374.12 112.05 407.72 112.05 407.72 103.42 374.12 103.42 374.12 98.58 407.72 98.58"></polygon><path class="cls-2" d="M296.54,155.35h0c9.82-.33,9.29-11.16,9.29-11.16s.53-10.82-9.29-11.15H259.32v8.62h27.4c2.22.08,2.1,2.52,2.1,2.52s.12,2.45-2.1,2.52l0,0H259.32v21.86h13.5V155.35Z"></path><path class="cls-2" d="M277.31,155.35h0Z"></path><path class="cls-2" d="M347.22,155.35h0c9.82-.33,9.29-11.16,9.29-11.16s.53-10.82-9.29-11.15H310v8.62h27.4c2.22.08,2.1,2.52,2.1,2.52s.12,2.45-2.1,2.52l0,0H310v21.86h13.5V155.35Z"></path><path class="cls-2" d="M328,155.35h0Z"></path><path class="cls-2" d="M219.61,151.88h0s0,11.91,0,11.94v.05c.24,4.29,4.38,4.69,5.52,4.71h24.49c1.14,0,5.28-.42,5.52-4.71v-.05s0-11.91,0-11.94h0V133h-8.51v22.14h0c-.15,4.27-4.2,4.69-5.36,4.72h-2.82c-1.15,0-5.2-.45-5.35-4.72h0V133H219.61Z"></path><polygon class="cls-2" points="219.61 163.73 219.61 151.88 219.61 151.88 219.61 163.73"></polygon><polygon class="cls-2" points="255.16 151.88 255.16 151.88 255.16 163.73 255.16 151.88"></polygon><polygon class="cls-2" points="374.2 159.96 374.2 133.03 360.68 133.03 360.68 159.96 360.67 159.96 360.67 168.59 396.24 168.59 396.24 159.96 374.2 159.96"></polygon><path class="cls-2" d="M192.1,155.1h0Z"></path><path class="cls-2" d="M206.25,146.5H182.74c-1.76-.35-1.66-2.45-1.66-2.45s-.12-2.42,2.08-2.49h42.18V133H173.45c-9.72.33-9.2,11-9.2,11s-.52,10.7,9.2,11h20.78V155h2.31c2.2.07,2.08,2.49,2.08,2.49s.1,2.08-1.64,2.44H164.25v8.63H203v0h3.25c9.72-.33,9.19-11,9.19-11S216,146.83,206.25,146.5Z"></path><polygon class="cls-2" points="383.87 133 406.81 161.22 400.4 168.59 413.51 168.59 444.53 133.03 431.42 133.03 415.68 151.05 401.09 133.05 383.87 133"></polygon></svg>